<?xml version="1.0" encoding="UTF-8"?>
<svg id="bread" xmlns="http://www.w3.org/2000/svg" viewBox="0 0 393 392.98">
  <defs>
    <style>
      .cls-1 {
        fill: #d6a76b;
      }

      .cls-1, .cls-2, .cls-3 {
        stroke-miterlimit: 10;
        stroke-width: 9px;
      }

      .cls-1, .cls-3 {
        stroke: #6a3906;
      }

      .cls-2 {
        stroke: #ae7034;
      }

      .cls-2, .cls-3 {
        fill: none;
      }

      .cls-4 {
        fill: #bc7c3c;
        stroke-width: 0px;
      }
    </style>
  </defs>
  <path id="inner" class="cls-4" d="m6.69,274.64c5.47-48.53,28.78-82.32,44.63-105.3,20.6-29.88,41.19-48.27,60.03-65.11,35.49-31.71,66.28-49.62,87.68-61.89C249.82,13.2,276.95,7.75,291.85,5.78c15.27-2.02,27.44-1.68,39.9,1.6,7.54,1.99,33.49,8.84,47.79,31.75,3.13,5.02,12.58,21.83,7.5,56.67-2.22,15.25-9.14,47.08-63.59,115.35-33.06,41.46-60.49,67.3-88.86,94.05-37.62,35.46-58.16,50.08-80.17,61.89-39.86,21.39-62.64,21.81-73.07,21.3-11.72-.58-36.12-1.77-54.5-18.89C-1.07,343.51,3.98,298.62,6.69,274.64Z"/>
  <path id="color_4" data-name="color 4" class="cls-1" d="m42.74,184.24c11.72,6.21,37.14,21.98,48.15,51.44,4.07,10.89,4.73,20.93,6.07,40.99,1.3,19.59-.09,32.63-6.07,45.01-2.74,5.68-5.81,11.83-11.33,12.86-7.51,1.41-14.98-7.55-23.87-18.48-11.24-13.83-12.76-20.22-21.44-31.75-4.89-6.5-12.68-15.44-24.68-24.51"/>
  <path id="color_3" data-name="color 3" class="cls-1" d="m70.11,145.25c4.16,2.8,10.11,7.16,16.58,13.26,6.56,6.16,14.22,14.62,25.28,32.15,17.77,28.18,18.26,38.49,33.97,52.65,10.6,9.57,16.56,10.44,20.53,9.24,3.75-1.12,7.46-4.61,10.65-13.26,4.93-13.33,15.11-56.33-10.27-100.48-6.15-10.71-19-29.47-43.45-45.42"/>
  <path id="color_2" data-name="color 2" class="cls-1" d="m243.89,20.67c8.79,10.27,19.1,25.33,25.66,45.42,3.03,9.25,9.39,32.17,4.34,57.08-2.19,10.84-6.02,19.45-13.03,25.72-3.26,2.92-6.02,5.39-9.88,5.62-2.67.17-9.82-.49-27.65-30.95-9.91-16.92-14.85-25.37-20.14-36.98-2.93-6.42-5.35-12.38-11.45-18.08-6.54-6.12-13.9-8.77-18.96-10.05"/>
  <path id="color_1" data-name="color 1" class="cls-1" d="m325.25,5.4c4.23,11.26,5.29,20.77,5.52,26.93.11,2.82.22,9.56-1.98,17.69-1.49,5.51-2.92,10.8-6.32,11.65-3.85.95-8.1-4.3-11.45-8.44-5.17-6.4-7.84-12.9-11.06-20.9-2.99-7.44-3.18-9.45-5.93-14.07-2.85-4.79-6.01-8.23-8.3-10.45"/>
  <path id="line_2" data-name="line 2" class="cls-2" d="m197.3,320.08c9.4-8.91,21.34-20.22,35.15-33.36,42.27-40.2,49.42-47.27,59.24-58.28,9.15-10.26,22.81-25.69,37.91-48.23,12.99-19.37,22.32-36.99,28.83-50.64"/>
  <path id="line_1" data-name="line 1" class="cls-2" d="m363.5,97.59c.09,1.7.09,3.69-.1,5.9-.35,4.02-1.23,7.29-2.04,9.61"/>
  <path id="border" class="cls-3" d="m6.69,274.64c5.47-48.53,28.78-82.32,44.63-105.3,20.6-29.88,41.19-48.27,60.03-65.11,8.24-7.37,30.54-26.64,62.67-47.04,6.14-3.9,14.57-9.06,25-14.86,33.82-18.81,59.09-32.11,92.81-36.58,15.27-2.02,27.44-1.68,39.9,1.6,7.54,1.99,33.49,8.84,47.79,31.75,3.13,5.02,12.58,21.83,7.5,56.67-2.22,15.25-9.14,47.08-63.59,115.35-33.06,41.46-60.49,67.3-88.86,94.05-37.62,35.46-58.16,50.08-80.17,61.89-39.86,21.39-62.64,21.81-73.07,21.3-11.72-.58-36.12-1.77-54.5-18.89C-1.07,343.51,3.98,298.62,6.69,274.64Z"/>
</svg>