<?xml version="1.0" encoding="UTF-8"?>
<svg id="Logotyper" xmlns="http://www.w3.org/2000/svg" viewBox="0 0 187.44 183.5">
  <defs>
    <style>
      .cls-1 {
        fill: #002f5f;
      }
    </style>
  </defs>
  <path class="cls-1" d="M150.23,18.19c.15.16.07.27-.08.4-.28.22-1.82,2.48-1.99,2.76-.11.19-.13-.14-.07-.33.18-.53.7-2.67-1.1-4.27-1.28-1.13-3.25-.47-3.97.6-.97,1.43-.99,2.73,0,6.47,1.03,3.9.6,5.33-.82,6.98-1.32,1.52-4.38,2.35-7.08.48-2.77-1.93-2.88-2.37-3.31-2.54-.34-.14-.33-.41.01-.81.49-.58,2.13-2.81,2.41-3.23.19-.28.23.04.03.46-.26.57-1.22,3.33,1.07,4.88,2.22,1.5,3.65.52,4.4-.37.83-.98,1.3-1.93.14-6.4-1.23-4.71-.38-6.26,1.4-7.65,1.84-1.44,4.28-1.53,6.27.04,1.07.84,1.61,1.43,2.02,1.82.23.22.35.47.47.58.09.08.13.04.2.13Z"/>
  <path class="cls-1" d="M2.44,71.46c.07-.16.25-.08.48,0,.58.21,2.37.5,2.96.52.5.02-.34.38-.6.41-.7.09-2.1.5-2.72,2.83-.44,1.65.56,2.97,1.83,3.23,2.05.42,3.13-.36,6.14-2.78,3.09-2.48,5.18-2.79,7.15-2.23,1.83.52,4,2.93,3.28,6.02-.62,2.69-1.36,3.19-1.58,3.76-.13.35-.28.47-.79.33-.65-.18-3.11-.54-3.56-.59-.79-.09-.46-.39,0-.45,1.27-.16,4.03-.5,4.58-3.22.41-2.02-.95-2.98-2.14-3.27-1.26-.31-2.62-.27-6.16,2.66-3.81,3.16-5.44,3.15-7.49,2.21-2.17-.99-3.08-2.95-2.61-5.59.3-1.68,1.04-3.16,1.16-3.33.07-.12.02-.4.07-.51Z"/>
  <path class="cls-1" d="M119.29,182.64c-.27,0-.21-.23-.25-.39,0,0-.67-2.24-.74-2.42-.07-.2.13-.24.27-.08.35.39,1.8,1.75,3.86,1.23,1.63-.41,2.54-2.16,2.13-3.38-.54-1.63-2.14-2.4-5.65-4.02-3.17-1.46-4.19-2.93-4.48-4.75-.34-2.13,1.04-5.14,4.07-6.08,2.65-.82,3.29-.74,3.8-1,.4-.21.46.62.52.78.25.71.94,2.9,1.1,3.31.14.38-.14.52-.34.1-.26-.56-2.16-2.82-4.55-2.04-2.36.77-2.71,2.45-2.38,3.57.37,1.24.58,2.22,5.03,4.09,4.33,1.82,5.17,3.69,5.19,5.78.02,2.33-1.83,4.14-4.29,4.76-1.32.34-1.58.24-2.13.32-.32.05-.56.07-.73.09-.13.02-.21.13-.43.13Z"/>
  <path class="cls-1" d="M152.34,23.08c.48-.21,1.29-.63,1.78-1.05.22-.18.65,0,.92.26.18.18,4.03,3.99,4.8,4.81,1.03,1.1,4.46,4.24,4.9,4.67.44.42.85.66.42.95-.44.29-1.39.83-1.68.97-.26.13-.19.03-.19-.29s-.22-.81-1.18-1.81-2.07-2.15-2.27-2.31c-.2-.16-.27-.19-.44-.04-.28.25-4.06,4.09-4.91,4.97-.78.8-5.72,5.65-5.86,6.41-.15.78.1.95.2,1.1.12.19.22.79-.02.54-.24-.24-1.82-1.97-2.2-2.32-.42-.39-1.91-1.65-2.13-1.85-.19-.17-.07-.33.32-.17.34.14.87.43,1.68.03,1.13-.56,5.36-4.94,5.96-5.54s4.7-4.87,4.82-4.99c.19-.2.25-.3-.02-.63-.29-.36-2.8-2.75-3.32-3.09-.46-.3-.75-.44-1.15-.44-.35-.01-.79-.01-.43-.18Z"/>
  <path class="cls-1" d="M11.49,53.81c-.36-.39-1.21-1.13-1.7-1.55-.22-.18-.1-.43.1-.75.13-.21,2.84-5.18,3.45-6.12.82-1.27,3.26-5.35,3.57-5.88.32-.56.53-.93.79-.7.38.36,1.06,1.16,1.24,1.42.22.3.09.15-.23.15s-.73.64-1.48,1.81c-.74,1.17-1.33,2.38-1.44,2.62-.15.33.06.42.25.55.32.21,4.79,2.97,5.85,3.6.97.56,6.86,3.92,7.71,3.88.8-.04.79-.17.94-.28.23-.16.69-.23.46.02-.27.3-1.28,1.79-1.6,2.4-.38.68-1.25,2.29-1.36,2.54-.11.23-.12-.17-.1-.51.02-.41.27-.78-.34-1.29-1.08-.89-6.23-3.91-6.96-4.34-.72-.44-5.76-3.29-6.11-3.41-.26-.09-.48-.4-.68-.03-.25.46-2.11,3.39-2.27,4.41-.08.46-.11.63-.02,1.04.08.44.1.61-.07.42Z"/>
  <path class="cls-1" d="M34.56,23.56c-.18-.72-.69-1.4-.96-1.95-.17-.33-.17-.32.26-.67.19-.15,4.7-3.49,5.6-4.17,1.22-.94,5.36-3.73,5.86-4.09.52-.38,1.05-.57,1.21-.12.18.5.68,1.67.76,1.97.12.45-.06.11-.38-.17-.25-.22-.7-.18-1.85.59-1.13.76-2.77,1.84-2.99,2.04-.27.24-.19.2-.09.4.26.51,3.23,4.88,4.06,5.98.69.9,4.8,6.72,5.58,7.06.53.24.85.07.98.03.24-.05.54.03.14.27-.35.2-1.65,1.07-2.08,1.36-.47.32-1.6,1.19-2,1.54-.48.41-.35-.03-.13-.32.19-.24.37-.47.06-1.19-.59-1.39-3.58-5.68-4.34-6.75-.49-.69-4.41-5.93-4.66-6.26-.14-.18-.19-.25-.53,0-.38.27-3.39,2.57-3.84,2.99-.35.33-.54.41-.57.86-.02.29-.01.94-.09.6Z"/>
  <path class="cls-1" d="M172.51,41.24c2.78,2.9,5.01,9.77-.72,14.54-4.87,4.06-11.09,2.39-13.67-.48-2.4-2.65-4.85-8.86.41-14,5.12-5,11.34-2.82,13.98-.06ZM160.89,43.62c-4.15,4.04-3.65,8.61-1.52,10.77,2.1,2.13,6.69,2.5,10.69-1.35,4.07-3.9,3.68-9.06,1.12-11.31-1.88-1.65-6.1-2.18-10.29,1.89Z"/>
  <path class="cls-1" d="M178.11,135.02c-1.29,4.13-6.81,8.6-13.44,5.64-5.44-2.43-6.71-8.49-5.42-12.17,1.19-3.38,6.11-8.35,12.5-5.88,6.28,2.45,7.67,8.21,6.36,12.41ZM170.81,125.51c-5.67-2.03-9.28.66-10.2,3.36-.87,2.59.14,6.46,5.87,8.62,5.55,2.07,9.72.02,10.67-3.73.35-1.39.43-5.82-6.34-8.25Z"/>
  <path class="cls-1" d="M170.9,78.05c-.49.01-2.01-.17-2.51-.27-.57-.12-.65-.13-.83-.37-.15-.2-2.57-3.08-2.57-7.5,0-4.84,2.3-8.81,6.91-10.17,4-1.18,8.18.5,10.58,3.58,1.93,2.46,2.16,5.62,2.22,6.62.09,1.4.21,2.24.28,2.69.12.76.11.97.28,1.17.16.2-.07.39-.36.43-.34.04-1.39.18-1.95.32-.42.1-1.27.34-1.39.37-.61.14-.58-.02-.11-.37.35-.25,1.69-.92,1.92-2.64.19-1.53.44-4.88-1.98-7.35-1.79-1.83-4.8-3.29-9.11-1.52-3.42,1.4-5.7,4.46-5.72,8.06-.03,3.63,2.1,5.79,4.17,6.52.65.22,1.02.41.17.43Z"/>
  <path class="cls-1" d="M186.63,80.39c-.01.74.34,4.05.48,4.71.17.78-.18.42-.23.14-.05-.24-.34-.72-.93-.78-.91-.09-4.85.19-8.1.6,1.47,1.57,6.37,5.09,7.03,5.55.8.57,1.59,1.07,1.84,1.06.17,0,.09.13.16-.09.1-.31.43-1.29.37.21-.01.36-.03,1.44,0,1.71.04.28.13,1.03.15,1.19.11.81-.02.65-.62-.09-.89-1.09-2.81-2.44-3.5-2.94-.66-.48-4.88-3.67-4.88-3.67,0,0-6.05,5.75-7.19,7-.4.44-1.93,2.03-2.36,2.98-.2.44-.35.65-.28.24.05-.27.24-1.92.28-2.64.04-.63.11-2.6.11-2.79.02-.39.18-.1.39-.04.31.08,2.02-1.52,3.89-3.36,1.42-1.4,3.79-3.96,3.96-4.21-.51-.06-5,.5-5.88.7-.89.2-1.82.44-2.1.75-.28.32-.38.52-.4.77-.03.24-.27.36-.31.04s-.11-2.05-.15-2.65c-.04-.64-.25-2.04-.29-2.25-.04-.19.16-.36.28-.08s.2.42.56.56c.68.27,1.58.28,8.26-.51,6.68-.77,7.19-.95,7.87-1.13.71-.19,1.14-.45,1.23-1.05.08-.34.38-1.02.36.07Z"/>
  <path class="cls-1" d="M186.76,103.32c-.13.6-.67,3.9-.67,4.56s-.31.67-.39.22c-.11-.64-.35-.72-.63-.89s-1.09-.46-3.32-.81c-2.31-.37-3.82-.63-3.82-.63,0,0-.72,3.05-1.12,4.9-.5,2.32-1.06,5.38-1.06,5.38,0,0,3.25.92,4.45,1.26,1.19.33,3.02,1.09,3.61.1.41-.69.67-.54.28.2-.14.26-.95,3.43-1.08,4.06-.24,1.17-.4.43-.35.16.05-.25.28-.76-.76-1.17-1.03-.42-4.52-1.58-7.59-2.46-3.07-.87-6.58-2-7.97-1.88-.69.06-.88.22-1.05.45-.23.33-.65.43-.32-.11.31-.51,1.1-3.34,1.23-4.22.2-1.37.42-.41.39-.15-.04.32.06.72.64,1.05,1.5.84,7.06,2.3,7.06,2.3,0,0,.71-2.81,1.18-4.97.56-2.55.94-5.08.94-5.08,0,0-1.41-.23-2.41-.4s-4.71-.71-5.2-.56c-.47.14-.73.5-.8.71-.07.23-.53.68-.28-.16.18-.6.54-2.87.61-4.18.06-1.18.37-.66.38-.33.01.26.28.7.54.81,1.24.54,3.44.85,7.95,1.52,4.51.66,7.91,1.14,8.52.92.65-.22.61-.46.73-.74.13-.3.49-.71.31.14Z"/>
  <path class="cls-1" d="M168.41,149.7c-.51.35-2.49,2.76-3.09,3.59-.48.65-.41.13-.29-.13.23-.47.09-.62-.09-1.03-.3-.68-2.62-2.56-5.6-5.06-2.94-2.45-5.62-4.73-6.42-4.77-.4-.02-.75-.05-1.57.7-1.24,1.14-2.71,2.96-3.04,3.54-.48.84-.38,1.64-.38,1.91.01.45-.13.39-.29,0-.17-.44-.6-2.19-.62-2.5-.02-.24,0-.37.27-.66.46-.5,4.38-4.94,4.95-5.57.62-.7,1.57-1.81,1.82-2.24.37-.64.49-.18.38.14-.12.33-.38.7-.18,1.3.39,1.16,4.08,3.89,6.21,5.6,4.17,3.36,6.21,5.13,6.89,5.13.53,0,.67-.09.92-.29.18-.15.67-.04.13.34Z"/>
  <path class="cls-1" d="M144.44,149.5c.2.51,2.19,3.93,4.28,7.42,2.15,3.6,4.48,7.36,4.8,7.92.63,1.1.65,1.37-.44.83-1.58-.79-7.94-3.99-8.96-4.48-1.08-.52-6.25-3.14-6.25-3.14,0,0,1.12,8.47,1.21,8.95.08.48,1.01,7.54,1.05,7.89.05.36.05.92-.59.31-.64-.6-10.66-13.39-11.17-13.97-.48-.55-.97-.8-1.47-.86-.4-.05-.59-.03-.79.04-.25.09-.45-.14-.08-.28.45-.17,4.02-2.02,4.38-2.23.23-.13.52.05.19.25-.45.28-.51.47-.42.88.22.97,7.48,9.98,7.48,9.98,0,0-1.24-8.09-1.44-9.12-.2-1.05-.92-5.81-.92-5.81,0,0,0-.3.31-.14.32.17,7.4,3.79,8.15,4.15.71.36,5.3,2.61,5.3,2.61,0,0-3.99-6.46-5.63-9.05-.41-.65-.85-.95-1.08-1-.56-.11-.74.12-1.06.26-.16.07-.43-.13.07-.43.6-.35,1.26-.87,1.66-1.19s1.43-1.3,1.59-1.46c.2-.2.42.04.24.21-.39.37-.71.71-.41,1.46Z"/>
  <path class="cls-1" d="M100.66,174.12c-.04.34.06,4.26.11,4.75.02.23-.18.16-.31-.34-.04-.15-.31-.69-.83-.79-1.52-.31-4.39-.08-4.39-.08,0,0-.09,4.54.39,5.06.45.49.52.43.72.48.2.04.69.29.37.27-.61-.06-4.03-.06-4.8.02-.56.06-.27-.2.2-.31.48-.11.71-.37.89-.96.21-.69.11-4.58.11-4.58,0,0-4.17-.04-4.69.25-.43.22-.52.62-.56.94s-.38.61-.34.17c.08-.78.13-3.6.04-4.23-.08-.56.05-.48.24-.15.23.41.15.64.64.84.58.23,4.68.16,4.68.16,0,0,.03-3.85-.08-4.44-.11-.57-.51-.93-.99-.98-.28-.03-.52-.27-.16-.24,1.21.13,3.63.08,4.58,0,.5-.05.2.22-.17.31-.41.11-.81.33-.97.94-.16.59-.13,4.38-.13,4.38,0,0,3.59.05,4.24-.09.55-.12.84-.45.96-.96.03-.35.28-.74.25-.41Z"/>
  <path class="cls-1" d="M68.13,183.32c-.7-.43-3.93-1.65-5.2-1.86-.57-.09-.04-.24.32-.22.47.04.87.11,1.21-.26.89-.96,4.41-9.83,4.87-11.92.48-2.17.55-4.97-3.38-6.37-4.09-1.46-5.72.77-7.94,4.95-1.62,3.05-4.2,8.48-4.2,9.09,0,.47.15.64.41.85.36.3.57.78.22.5-.9-.72-3.92-2-4.51-2.18-.35-.11-.07-.31.37-.22.37.08.53,0,.89-.26.88-.61,5.34-9.55,5.93-10.52,1.09-1.8,2.79-3.48,5.15-3.91,2.56-.45,6.61.87,8.69,3.79,1.72,2.43,1.13,5.02.81,6.4-.39,1.69-4.07,9.91-4.08,11.01,0,.45.19.57.43.77.23.23.37.58.01.36Z"/>
  <path class="cls-1" d="M42.36,172.36s-.77-8.32-1-11.19c-.27-3.35-1.11-9.82-1.11-9.82,0,0-6.54,7.07-7.38,7.92-.85.86-1.63,1.7-1.63,2.29s.27.71.37.91c.08.17.23.73.06.53-.33-.4-1.05-1.14-1.79-1.82-.64-.58-1.29-1.11-1.73-1.4-.44-.3.11-.25.35-.09.24.17.41.25.9.2.62-.08,5.32-5.24,7.06-7.06,1.75-1.82,5.67-6.14,6.07-6.69.29-.4.29-.22.32.21.04.53.72,9.08.87,10.07.14.92.58,6.74.63,7.39.06.65.25,2.83.25,2.83,0,0,3-4.32,4-5.87,1-1.55,3.09-4.33,3.08-5.07-.01-.78-.42-1.02-.67-1.26-.14-.14-.24-.49.07-.22.69.62,2.83,2.16,4.14,2.76.63.29-.31.12-.48.04-.1-.04-.7-.17-1.21,0-.67.24-4.45,6.02-5.2,7.13-.78,1.14-3.05,4.32-3.57,5.18-.53.86-1.75,2.65-1.99,3.1-.23.43-.34.39-.41-.08Z"/>
  <path class="cls-1" d="M33.95,137.54c.22.42.83,1.34,1.52,2.22.69.86,1.43,1.62,1.88,2.04.35.34-.14.21-.47-.03-.39-.29-.71-.36-1.74.21-1.21.65-11.94,9.68-12.35,10.2-.5.62-.46.92-.25,1.39.16.36.05.68-.09.45-.42-.67-2.45-3.48-3.18-4.02-.47-.35.02-.26.33-.09.33.19.42.17.78.02,1.2-.51,13.32-10.3,13.51-10.99.2-.73-.07-.84-.1-1.05-.03-.29-.08-.78.16-.35Z"/>
  <path class="cls-1" d="M24.66,64.63c-.46.72-1.85,4.23-2.08,5.24-.11.47-.33-.03-.27-.37.12-.59.21-.9-.78-1.56-1.27-.84-13.94-5.68-15.21-5.68-.65,0-.8.27-1.04.56-.21.26-.64.38-.37-.01.31-.44,1.99-4.62,2.08-5.21.09-.57.31.01.25.33-.09.48-.06.83.24,1.08,1.21,1.03,14.9,6.29,15.91,6.12.69-.11.62-.35.86-.57.26-.23.73-.43.41.07Z"/>
  <path class="cls-1" d="M19.89,134.6l4.06-5.42s-7.11.38-8.63.51c-1.52.13-5.95.32-6.45,1.04-.33.48-.02,1.01.01,1.17.06.33-.02.84-.16.45-.09-.25-.64-1.69-1.08-2.69-.39-.9-.91-1.99-1.05-2.2-.22-.33.15-.25.37,0,.23.25.36.41.96.57,1,.26,7.61-.08,8.89-.12,1.28-.05,10.68-.67,11.47-.59.42.04.79-.16.29.62-.28.44-5.9,7.79-6.33,8.38-.44.61-5.66,7.36-5.76,8.2-.08.72.02.9.06,1.09.06.29.02,1.07-.09.81-.48-1.16-2.52-4.26-3.16-5.1-.4-.52.13-.17.45-.05.33.11.52.04.87-.2,1.04-.67,4.73-5.69,5.28-6.46Z"/>
  <path class="cls-1" d="M20.49,107.87c.27.77,1.1,4.14,1.51,5.61.15.52,1.08,3.95,1.36,4.53.13.28-.48-.16-.6-.46-.08-.19-.05-.32-.36-.55-.17-.13-.41-.16-.63-.18-.86-.11-5.77,1.52-8.22,2.27-2.52.77-7.33,2.22-7.83,2.8-.5.59-.34.85-.3,1.15.04.26-.16,1.21-.27.62-.1-.56-.21-1.56-.66-3.15-.4-1.41-2.02-7.23-2.12-7.49-.13-.32-.15-.44.09-.54.23-.08,1.76-.61,2.17-.85.51-.31.31.14.03.43-.27.29-.42.44-.37,1.35.07,1.07,1.36,5.07,1.36,5.07,0,0,2.4-.64,3.18-.91.77-.28,3.4-1.05,3.4-1.05,0,0-1.14-4.32-1.54-4.84-.38-.5-.63-.4-1.02-.37-.29.02-.77-.19-.41-.26.81-.16,3.03-.76,4.11-1.28.46-.22,0,.35-.21.47-.22.13-.55.33-.58,1.06-.02.61.4,2.07.59,2.58.17.49.66,2.17.66,2.17,0,0,4.35-1.25,5.07-1.6.69-.34,1.29-.35,1.13-1.79-.14-1.21-.92-4.03-1.54-4.94-.47-.69-.86-.95-1.02-1.07-.16-.13-.73-.61-.39-.5.51.16,2.68.92,2.94,1.12.24.18.35.26.47.6Z"/>
  <path class="cls-1" d="M41.83,39.46c-.52.55-4.34,4.68-5.4,5.89-.36.41-1.21,1.38-1.46,1.68-.2.23-.28-.22-.12-.5s.33-.4.12-1.06c-.27-.88-4.72-4.51-6.65-6.19-2.08-1.8-5.43-4.86-6.2-4.97-.69-.09-.86.03-1.19.2-.24.12-.84.37-.42-.04.41-.4,1.04-1.1,1.96-2.09,1-1.07,5.07-5.31,5.24-5.53.21-.28.32-.28.5-.1.21.22,1.23,1.28,1.63,1.53.61.37.06.33-.26.25-.28-.06-.44-.17-1.11.22-1.06.62-3.55,3.6-3.55,3.6l4.87,4.5s3.39-3.16,3.45-3.81c.05-.56-.03-.7-.07-.83-.09-.26-.05-.71.16-.4.63.89,2.25,2.33,2.67,2.63.43.3-.07.31-.3.2-.36-.16-.49-.41-1.16-.09-.66.33-3.38,3.52-3.38,3.52,0,0,3.47,2.98,4.12,3.46.85.62,1.46.77,2.31-.01.9-.82,2.84-2.71,3.29-3.72.35-.77.21-1.31.23-1.5.02-.3.2-.68.26-.43s.77,2.47.81,2.81c.03.3-.04.45-.35.78Z"/>
  <path class="cls-1" d="M19.13,98.56c.03.41.14,2.36.27,3.23.07.49-.23-.12-.3-.37-.07-.24-.11-.5-.52-.7-.68-.36-5.41.04-8.17.34-2.52.28-8.35.57-9.04,1.21-.5.46-.41,1.01-.43,1.21-.01.27-.47,1.14-.46.48.01-.4-.01-2.15-.1-2.76-.1-.66-.56-4.87-.31-6.32.29-1.66,1.93-3.97,4.75-4.09,2.97-.13,4.41,2.36,4.71,2.96.27-.35.43-.54,1.22-1.14.96-.73,7.27-4.45,7.75-5.58.31-.73.16-1.09.15-1.25-.06-.74.1-1.26.46,0,.21.75.36,2.86-.54,4.12-1.12,1.57-4.69,3.69-5.39,4.17-.83.56-2.73,1.61-2.73,2.76.01,1.01.15,1.62.15,1.62,0,0,2.8-.28,3.56-.37s3.72-.27,4.12-.71c.4-.45.31-.6.35-.83.03-.21.48-1.15.45.07,0,.44.02,1.54.05,1.95ZM7.72,93.98c-2.63-1.54-5.11-.18-5.96,1.19-.82,1.37-.38,3.94-.38,3.94,0,0,3.38-.23,4.03-.27.64-.04,4.14-.29,4.14-.29,0,0,.37-3.28-1.83-4.57Z"/>
  <path class="cls-1" d="M89.01,36.69c-3.27-3.89-3.79-8.15-3.79-10.39,0-2.89,1.31-4.72,2.58-6.5l.94-1.16c1.57-1.84,3.71-4.35,3.71-8.74,0-3.82-.44-5.46-.68-6.09-.14,1.89-1.23,9.71-9.36,16.76-2.33,2.02-6.22,5.4-6.22,9.61,0,6.18,4,11.29,5.24,12.73-1.07-2.72-1.41-5.38-1.41-7.55,0-3.05.62-5.17.63-5.21l.07-.24.12.21c2.83,4.77,7.03,6.25,8.17,6.57Z"/>
  <path class="cls-1" d="M90.22,18.6c2.02-.78,9.37-3.99,9.37-9.14,0-4.02-2.95-7.62-3.95-8.73.28.9.82,2.97.82,5.47,0,6-4.8,11.04-6.24,12.4Z"/>
  <path class="cls-1" d="M117.74,8.74c-1.97,2.87-9.21,5.72-9.54,5.85l-.12-.18c4.11-4.18,5.23-10.66,5.47-12.42-5.79,9.13-9.34,10.7-13.42,12.5l-1.79.8c-4.9,2.32-10.52,5.64-10.52,10.83,0,6.87,2.34,9.74,3.13,10.52-.51-1.83-.68-3.39-.68-4.61,0-1.99.41-3.1.42-3.12l.15-.4.06.42c.54,3.78,5.1,7.33,6.1,8.07-.05-.41-.13-1.3-.13-2.48,0-3.83.89-10.62,6.84-13.17,10.73-4.58,13.41-10.51,14.03-12.61Z"/>
  <path class="cls-1" d="M108.85,30c0-7.08,1.36-9.8,2.08-10.75-11.55,5.23-12.79,14.77-12.79,18.55,0,.46.02.81.04,1.08.5-1.46,2.25-5.73,6.48-9.32l.07-.06.07.04s.04.03.04.14c0,.38-.26,1.91-1.79,8.45,1.06-.67,5.8-3.98,5.8-8.13Z"/>
  <path class="cls-1" d="M118.98,29.31c0-2.08-.57-3.75-.83-4.41-.19.74-.82,2.57-2.77,4.39h0l-.16-.16s1.2-1.38,1.2-4.97c0-1.04-.1-2.25-.35-3.67-.09-.54-.14-1.07-.14-1.58,0-2.84,1.27-5.18,1.87-6.14-1.23.9-4.61,3.77-6.01,9.06-1.05,3.92-1.31,5.57-1.51,6.77-.13.83-.23,1.42-.52,2.4-.67,2.28-2.13,6.37-3.32,8.31.85-.5,3.14-2.08,4.88-5.57l.15-.3.06.34s.13.85.13,2.1c0,1.56-.23,3.76-1.13,5.78,1.55-1.23,8.45-7.04,8.45-12.35Z"/>
  <path class="cls-1" d="M131.25,17.81c-3.88-2.88-8.11-1.55-8.15-1.53l-.35.11.23-.29c1.97-2.48,4.49-4,5.3-4.46-1.23-.18-6.08-.62-8.48,2.83-1.55,2.23-1.81,5.6-1.81,7.58,0,.55.02.97.04,1.25,2.37-4.12,2.64-4.11,2.73-4.1l.1.04v.08c.1.44.14.99.14,1.58,0,1.87-.35,4.22-.53,5.36,4.19-8.02,9.37-8.49,10.78-8.45Z"/>
  <path class="cls-1" d="M96.63,160.85l.44-19.42c.38.56.68,1.04.81,1.31.47.99.8,2.3.8,2.3,0,0,.65.65.8,1.6.15.95.6,4.15.75,4.9s.15,1.35.6,1.35c2.6,0,4.05-4.3,3.5-5.65-.55-1.35-2-3-2-3,0,0-1.4-4.45-1.65-5s-1.25-1.05-1.55-1.25c-.15-.1-1.06-1-1.94-1.88l.12-5.44c-.34.04-.62,0-.86,0-3.95,0-6.13-2.45-6.22-2.54l.96,32.7,5.44.02ZM103.18,150.24c-1.15,1.6-1.3,1.65-1.7,1.65s-.4-1.75-.15-2.65.9-1.85,1.75-1.8c.69.04,1.24,1.2.1,2.8Z"/>
  <path class="cls-1" d="M139.74,86.99c.85.25,4.6,1.3,6.49,1.2,4.94-.26,8.64-4.05,9.74-4.95,1.1-.9,4.2-2.5,4.2-2.5,0,0-2.7-.05-6.09-.35-3.4-.3-6.8.25-9.34,1.1-2.55.85-4.05,2.5-4.55,2.9s-.9,1-1.9,1.25-1.85.45-1.85.45c.5-1.35.95-2,1.35-2.3s2.6-1.75,4.85-4.15c2.25-2.4,5.64-8.24,5.89-9.19.25-.95,2.3-5.54,2.3-5.54,0,0-2.5,1.8-5.24,3.25-2.75,1.45-5.8,4.1-7.14,6.44-1.35,2.35-1.85,5.2-1.9,7.5-.05,2.3-.95,4.25-2.9,6.59-1.5,1.8-4.6,4.35-5.2,4.85-.16.14-1.54,1.15-3.05,1.55-.95.25-2.1.1-2.1.1,0,0,1.05-1.35,1.7-1.55.65-.2,2.2-.7,4.7-2.95s4-7.94,4.2-8.89,1.1-3.85,1.1-3.85c0,0-1.95,1.9-4.25,3.35s-5,4.1-6.65,6.84c-1.65,2.75-.85,4.95-.85,5.35s-.15.65-.8,1.3c-.65.65-1.65.8-2.2.95-.55.15-2.85,1.05-5.2,1.05s-5.45-1.1-6.14-1.15c-.7-.05-1.8.6-2.25.65-.45.05-.8-.15-1.25-.15s-1.85.05-1.85.05c.35-.7.4-1.95.45-2.3.05-.35.15-.85.65-.95.5-.1,1.95-1.05,2.45-1.3s.9-.3,1.45-.3c.4,0,3.2-.1,5.5-1.5,4.09-2.49,6.35-6.35,6.99-7.3.65-.95,3.9-3.35,3.9-3.35,0,0-2.55.7-5.45,1.55-2.9.85-7.14,2.85-8.64,4.2-1.5,1.35-2.3,2.65-2.85,3.55-.55.9-1.05,2.15-1.5,2.5s-1.9,1.1-1.9.9.55-1.25.9-1.85,1.45-2.35,2.15-3.4c.7-1.05,1.1-2.15,1.3-2.7.2-.55.7-1.9,1.3-2.6,2.19-2.55,3.7-2.55,4.9-2.65,1.2-.1,2.4.15,6.19-.3,3.8-.45,6.69-2.55,7.49-3s4.35-3.05,4.35-3.05c0,0-3.45.6-4.54.75-1.1.15-5.35.2-7.79.8-2.45.6-4.6,2.1-6.65,3.45-2.05,1.35-4.25,3.25-4.25,3.25,0,0,0-1.3.15-1.9.15-.6.35-1.45,1.35-2s3.85-2.25,5.69-4.1c1.85-1.85,4.2-5.75,4.5-6.64.3-.9,2.1-4.5,2.1-4.5,0,0-.85.9-4,2.5s-6,3.8-7.69,6c-1.7,2.2-1.95,4.15-2,4.99-.05.85-.2,1.95-.4,2.4-.2.45-.43.71-.6,2.55-.15,1.65-.35,2-.65,2.85s-.3,1.2-.65,1.8-.3.3-.65,1.15c-.35.85-2.35,3.35-2.35,3.35,0,0-.65-.8.35-2.95,1.45-3.12,2-5.65,2.05-7.29.05-1.65-.7-4.9-1.15-6.1-.45-1.2-1.95-5.44-1.95-5.44,0,0-.15,1.95-.85,3.95s-2.3,6.04-2.3,8.84,1.45,6.05,2.15,6.94c.7.9.85,1.65.75,2.75s-.49,1.5-1.05,2.4c-.35.55-.34.81-.7,2.35-.7,3-2.2,3.9-3.5,4.94-.15.12-.35.26-.57.41l.7-27.41c.31-4.14.72-12.49,4.51-17.98.48-.69.73-1.03.73-1.03,2.47-3.44,6.19-5.07,9.4-5.39v-2.24s-17.22-.03-20.57-.03h-.06c-3.33,0-18.84.03-18.84.03v2.24c3.2.32,6.93,1.95,9.4,5.39,2.94,4.1,4.76,6.51,5.29,19.49l.96,31.33c-2.22,1.24-2.59,3.93-2.59,3.93-.4-.7-.55-1.55-.25-2.05s1.35-3.3.85-5.99c-.5-2.7-3.5-7.19-4.45-8.29-.95-1.1-2.7-3.8-2.7-3.8,0,0,.05,2.5-.1,4.5s-.85,4.8.35,8.29c1.2,3.5,3.75,5.2,4.2,5.55s.95.95,1.15,2c.2,1.05.05,1.3-.1,2.05s.05,1.15-.25,2.2c-.21.73-.8,1.15-.9,1.8-.23,1.48-.6,2.5-.75,3.05s-.5.65-.95,1.4-.35,1.25-.35,1.25c0,0-2.3-1.95-2.6-2.65-1.9-4.42-4.95-5.4-6.9-5.85-1.95-.45-5-.3-6.49-.15-1.45.14-5.19-.6-5.42-.65.21.04,1.87.45,3.97,2.74,2.25,2.45,4.9,4.2,6.95,5,2.05.8,4.5.15,5.25-.05s1.3-.5,1.95-.25c.65.25,1.4,1.25,1.4,1.25,0,0-1.15.65-2,1.05-3.03,1.42-5.36,2.58-7.14,5.54-.76,1.27-1.8,5.75-1.95,6.79-.15,1.05-1.05,3.85-1.05,3.85,0,0,1.7-1.45,3.1-2.4s3.45-2.1,5.7-4.95c2.25-2.85,2.55-7.24,2.65-8.14s.75-1.15,1-1.15,1.1.6,1.05,1.35c-.05.75.35,1.55.65,2s1,1.05,1.6,1.9c.6.85,1.05,2.75,1.45,3.55.4.8.6.7,1.2,1.8s.5,1.7,1,2.55.75.75.75.75l-.3-5.3s-.2-.1-.4-.35c-.2-.25-.5-.9-.5-.9,0,0,.9-.6,1.5-.9.6-.3.95-.15,1.35.1s3.25,2.55,6.35,2.55,9.44-3.4,10.59-4,4.15-1.45,4.15-1.45c0,0-3-.3-4.6-.65-1.6-.35-6.24-1.25-7.34-1.25s-2.05.25-2.05.25l.13-1.61s-1.32,1.12-1.77,1.47c-.45.35-1.59.98-3.3,1.64-1.23.47-2.4.7-2.4.7,0,0-.2-.2-.35.55s-.25.65-1.1.85c-.85.2-1.6.55-1.6.55,0,0,.7-1.8.8-2.1.1-.3.25-.6,1.3-.8s4.1-.9,7.14-3.65c3.05-2.75,4.61-6.26,5.15-7.44.87-1.92,3.55-4.4,3.55-4.4,0,0-2.3.9-6.64,2.4-.21.07-.4.15-.61.22l.16-5.74h-.01v-.41c-.11.05-.21.1-.29.14-.65.3-2.55.85-3.3,1.2-.75.35-1.35,1.15-1.95,1.45-.36.18-1.66.59-2.82,1.74l.05.94h0l.19,6.11c-1.66,2.18-1.77,3.91-1.96,5.05-.2,1.15-.35,1.7-.5,2.3s-.75,2-.75,2c0,0-.85-1.65-1.7-2.55-.85-.9-.55-1.65-.45-2.35.1-.7.5-1.45.95-2.6.45-1.15,1.05-3.35,1.4-4.05s.2.65.95-3.45c.75-4.1,4.05-5.04,4.65-5.34s1.2-1.1,1.95-1.45c.75-.35,2.65-.9,3.3-1.2s2.77-1.19,3.75-2.5,1.55-1.7,2.2-2.05c.65-.35,1.7-.4,3.35-.5s2,1.2,2.35,1.65.35.9.4,1.5-.4,3.7,2.95,6.6c3.35,2.9,7.44,3.15,8.94,3.55,1.5.4,5.25,1.95,5.25,1.95,0,0-.65-.25-3.2-4.2-2.55-3.95-5-6.3-6.53-7.18-1.54-.89-4.36-1.51-5.01-1.66-.65-.15-1.25-.35-1.65-.7-.4-.35-1.25-1.6-1.25-1.6,0,0,.35-.05.65,0s1.65.95,5,.95,5.14-1.15,5.79-1.4,1.3-.2,1.95.2c.65.4,1.45.95,3.05,1.95,1.6,1,4.5,2.55,7.44,2.55s8.05-1.4,9.39-2.05c1.35-.65,3.9-1.2,3.9-1.2,0,0-2.5-.45-3.9-.75s-5.95-2-9.14-2-5.49,1.5-5.79,1.7c-.3.2-.7.8-2.05.4-1.35-.4-1.55-1.35-1.55-1.35,3.8-.55,4.15-1.15,5.65-2.1,1.5-.95,2.75-2.75,3.7-3.65.64-.61,1.17-1.38,2.55-2.65,1.85-1.75,3.84-.75,3.84-.75ZM147.03,81.8c3.76-.89,10.64-.57,9.81-.37-.84.21-5.79,2.35-9.29,3.29-3.5.94-7.56,1.2-7.56,1.2l-.05-.1s3.33-3.13,7.09-4.02ZM139.51,74.65c2.5-4.23,8.4-6.58,8.4-6.58,0,0-4.28,5.69-5.64,7.51-1.36,1.83-4.85,6.99-4.85,6.99,0,0-.41-3.69,2.09-7.92ZM125.53,87.44c2.45-4.02,7.25-6.42,7.25-6.42,0,0-2.97,5.01-4.65,7.3-1.67,2.3-4.07,5.11-4.07,5.11,0,0-.98-1.98,1.47-5.99ZM112.43,84.93c2.2-1.5,8.87-3.97,8.87-3.97,0,0-5.11,4.54-7.67,6.37-2.56,1.83-5.64,3.29-5.64,3.29,0,0,1-3.34,4.44-5.69ZM120.73,74.76c2.19-.73,8.97-.99,8.97-.99,0,0-5.9,2.09-8.29,2.87-2.4.78-6.63,1.41-6.63,1.41,0,0,2.71-2.21,5.95-3.29ZM112.85,70.37c1.88-2.92,8.71-6.47,8.71-6.47,0,0-3.81,3.81-6.47,6.94-2.66,3.13-4.44,5.27-4.44,5.27l-.05.1s.37-2.91,2.25-5.84ZM103.77,86.44s-1.88-2.56-1.93-6.73,2.4-8.66,2.4-8.66c0,0-.1,4.91.05,7.67.16,2.77-.52,7.72-.52,7.72ZM71.52,115.35c-2.4-.83-5.9-3.18-5.9-3.18,0,0,6.37-.73,8.71.42,4.06,1.99,4.64,5.01,4.64,5.01,0,0-5.05-1.41-7.45-2.25ZM70.49,134.13s.81-6.35,2.59-8.56c2.59-3.22,5.38-3.73,5.38-3.73l-7.97,12.29ZM98.78,122.93c2.28-.23,8.57,1.18,8.57,1.18,0,0-6.6,1.57-9.98,1.81-3.38.23-6.33-.08-6.33-.08,0,0,1.57-2.28,7.74-2.91ZM92.29,114.62c2.35-2.29,9.55-4.54,9.55-4.54,0,0-5.74,4.91-8.04,6.94-2.3,2.03-5.22,5.53-5.22,5.53,0,0-.46-3.86,3.71-7.93ZM85.92,106.06s-1.77-3.03-2.66-6.26c-.69-2.53-1.72-8.66-1.72-8.66,0,0,4.04,5.83,4.75,7.77,1.2,3.29-.37,7.15-.37,7.15ZM110.71,99.8s4.28.99,6.21,2.3c4.1,2.77,6.63,8.09,6.63,8.09,0,0-4.17-2.24-7.2-4.54-3.03-2.29-5.64-5.69-5.64-5.69v-.16h0ZM132.94,96.31c3.76,0,9.24,1.88,9.24,1.88,0,0-6.99.89-9.24.89s-6-.57-6-.57c0,0,3.08-2.2,6-2.2Z"/>
  <path class="cls-1" d="M122.15,68.56s-1.36.56-1.36,2.6,1.81,1.47,1.81,1.47c0,0,1.58-.34,1.58-2.37,0-2.04-2.03-1.7-2.03-1.7Z"/>
  <path class="cls-1" d="M146.89,76.06s-1.36.56-1.36,2.6,1.81,1.47,1.81,1.47c0,0,1.59-.34,1.59-2.37s-2.04-1.7-2.04-1.7Z"/>
  <path class="cls-1" d="M105,99.56s-1.36.57-1.36,2.61,1.81,1.46,1.81,1.46c0,0,1.59-.34,1.59-2.37s-2.04-1.7-2.04-1.7Z"/>
  <path class="cls-1" d="M134.28,91.7c-.62,1.94,1.28,1.95,1.28,1.95,0,0,1.61.16,2.23-1.78.63-1.94-1.42-2.24-1.42-2.24,0,0-1.46.13-2.09,2.07Z"/>
  <path class="cls-1" d="M121.69,99.54s-1.36.57-1.36,2.61,1.81,1.47,1.81,1.47c0,0,1.59-.34,1.59-2.38s-2.04-1.7-2.04-1.7Z"/>
  <path class="cls-1" d="M101.78,116.63s-1.36.56-1.36,2.6,1.81,1.48,1.81,1.48c0,0,1.58-.34,1.58-2.38.01-2.04-2.03-1.7-2.03-1.7Z"/>
  <path class="cls-1" d="M70.71,123.87s1.58-.34,1.58-2.38-2.04-1.7-2.04-1.7c0,0-1.36.57-1.36,2.6.01,2.05,1.82,1.48,1.82,1.48Z"/>
  <path class="cls-1" d="M80.11,0c.6.82,2.78,4.1,2.78,8.06,0,1.1-.13,2.85-.13,2.85,0,0-.1,1.71-.95,5.04,1.2-1.8,2.91-4.66,3.5-7.04l.07-.27.13.25c.04.08.91,1.7,1.05,3.41.34-.77,1.04-2.63,1.04-4.68,0-3.38-3.43-7.47-7.49-7.62Z"/>
  <path class="cls-1" d="M81.01,12.41h0c-.06-1.06-.19-2.32-.45-3.76-.35,1.09-1.75,3.75-7.32,9-3.18,2.99-4.9,5.26-4.9,8.64,0,6.57,5.87,11.79,7.31,12.97-.48-1.26-1.97-5.59-1.97-10.67,0-2.25,1.31-3.56,2.59-4.84l.31-.31c.88-.87,2.24-2.22,3.12-3.53h0s.67-.91,1.08-2.4c.06-.24.13-.64.19-1.22h0c.07-.6.14-2.33.04-3.88Z"/>
  <path class="cls-1" d="M50.2,71.57c-.96,0-1.68.78-1.68,1.7,0,.4.18.8.48,1.1-.2-.06-.4-.1-.6-.1-1.18,0-2.12.96-2.12,2.12s.94,2.12,2.12,2.12c.2,0,.38-.04.56-.08-.46,1.56-1.92,2.56-3.52,2.56-3.12,0-4.36-3.36-4.48-4.16.24.86,1.04,1.52,2,1.52,1.16,0,2.1-.94,2.1-2.1s-.94-2.1-2.1-2.1c-.22,0-.42.06-.62.12.44-.4.72-.94.72-1.58,0-1.16-.94-2.08-2.1-2.08s-2.1.92-2.1,2.08c0,.64.3,1.2.74,1.6-.22-.08-.44-.14-.68-.14-1.16,0-2.1.94-2.1,2.1s.94,2.1,2.1,2.1c.96,0,1.76-.66,2-1.52-.12.96-1.88,4.16-4.5,4.16-1.74,0-3.14-1.06-3.54-2.56.18.04.36.08.56.08,1.16,0,2.12-.94,2.12-2.12s-.96-2.12-2.12-2.12c-.22,0-.42.04-.6.1.3-.3.48-.7.48-1.1,0-.92-.72-1.7-1.7-1.7-.82,0-1.06.2-1.06.2.44,1.74.96,5.22,1.04,5.7l1.46,9.52h15.72s.02-.16.04-.28l1.42-9.24c.32-2.16.7-4.43,1.02-5.7,0,0-.24-.2-1.06-.2Z"/>
  <path class="cls-1" d="M79.92,71.57c-.96,0-1.68.78-1.68,1.7,0,.4.18.8.48,1.1-.2-.06-.4-.1-.6-.1-1.18,0-2.12.96-2.12,2.12s.94,2.12,2.12,2.12c.2,0,.38-.04.56-.08-.46,1.56-1.92,2.56-3.52,2.56-3.12,0-4.36-3.36-4.48-4.16.24.86,1.04,1.52,2,1.52,1.16,0,2.1-.94,2.1-2.1s-.94-2.1-2.1-2.1c-.22,0-.42.06-.62.12.44-.4.72-.94.72-1.58,0-1.16-.94-2.08-2.1-2.08s-2.1.92-2.1,2.08c0,.64.3,1.2.74,1.6-.22-.08-.44-.14-.68-.14-1.16,0-2.1.94-2.1,2.1s.94,2.1,2.1,2.1c.96,0,1.76-.66,2-1.52-.12.96-1.88,4.16-4.5,4.16-1.74,0-3.14-1.06-3.54-2.56.18.04.36.08.56.08,1.16,0,2.12-.94,2.12-2.12s-.96-2.12-2.12-2.12c-.22,0-.42.04-.6.1.3-.3.48-.7.48-1.1,0-.92-.72-1.7-1.7-1.7-.82,0-1.06.2-1.06.2.44,1.74.96,5.22,1.04,5.7l1.46,9.52h15.72s.02-.16.04-.28l1.42-9.24c.32-2.16.74-4.57,1.02-5.7,0,0-.24-.2-1.06-.2Z"/>
  <path class="cls-1" d="M66.23,90.59c-1.06,0-1.85.86-1.85,1.88,0,.44.2.88.53,1.21-.22-.07-.44-.11-.66-.11-1.3,0-2.34,1.06-2.34,2.34s1.04,2.34,2.34,2.34c.22,0,.42-.04.62-.09-.51,1.72-2.12,2.82-3.88,2.82-3.44,0-4.81-3.71-4.94-4.59.26.95,1.15,1.68,2.21,1.68,1.28,0,2.32-1.04,2.32-2.32s-1.04-2.32-2.32-2.32c-.24,0-.46.07-.68.13.49-.44.79-1.04.79-1.74,0-1.28-1.04-2.29-2.32-2.29s-2.32,1.01-2.32,2.29c0,.71.33,1.32.82,1.76-.24-.09-.48-.15-.75-.15-1.28,0-2.32,1.04-2.32,2.32s1.04,2.32,2.32,2.32c1.06,0,1.94-.73,2.21-1.68-.13,1.06-2.07,4.59-4.96,4.59-1.92,0-3.46-1.17-3.9-2.82.2.04.4.09.62.09,1.28,0,2.34-1.04,2.34-2.34s-1.06-2.34-2.34-2.34c-.24,0-.46.04-.66.11.33-.33.53-.77.53-1.21,0-1.01-.79-1.88-1.88-1.88-.9,0-1.17.22-1.17.22.49,1.92,1.06,5.76,1.15,6.29l1.61,10.5h17.34s.02-.18.04-.31l1.57-10.19c.35-2.38.8-5.05,1.12-6.29-.02,0-.28-.22-1.19-.22Z"/>
</svg>